<svg width="36" height="36" viewBox="0 0 36 36" fill="none" xmlns="http://www.w3.org/2000/svg">
<g clip-path="url(#clip0_77_499)">
<path d="M15.5477 25.2675C14.8277 25.2675 14.2427 24.6825 14.2427 23.9625C14.2427 23.2425 14.8277 22.6575 15.5477 22.6575C17.5558 22.6575 19.4739 22.455 21.2627 22.0612C21.2964 22.05 21.3302 22.0444 21.3639 22.0331C25.5602 21.0881 28.4852 19.1025 28.4852 17.2012C28.4852 16.4812 29.0702 15.8962 29.7902 15.8962C30.5102 15.8962 31.0952 16.4812 31.0952 17.2012C31.0952 20.4637 27.6302 23.2762 22.0445 24.5587C22.0108 24.57 21.9771 24.5812 21.9377 24.5869C19.9352 25.0369 17.7864 25.2675 15.5477 25.2675Z" fill="#84C225"/>
<path d="M29.7899 18.5063C29.0699 18.5063 28.4849 17.9213 28.4849 17.2013C28.4849 15.3 25.5599 13.3144 21.3637 12.3694C19.5356 11.9531 17.5781 11.745 15.5418 11.745C14.8218 11.745 14.2368 11.16 14.2368 10.44C14.2368 9.72001 14.8218 9.13501 15.5418 9.13501C17.7693 9.13501 19.9237 9.36563 21.9374 9.82126C27.5849 11.0925 31.0893 13.9163 31.0893 17.1956C31.0909 17.3672 31.0584 17.5374 30.9938 17.6964C30.9292 17.8554 30.8337 18 30.7129 18.1219C30.5921 18.2437 30.4483 18.3405 30.2899 18.4064C30.1315 18.4724 29.9615 18.5063 29.7899 18.5063Z" fill="#84C225"/>
<path d="M15.5475 32.7488C6.975 32.7488 0 25.7738 0 17.2013C0 8.62881 6.975 1.65381 15.5475 1.65381C24.12 1.65381 31.095 8.62881 31.095 17.2013C31.095 25.7738 24.12 32.7488 15.5475 32.7488ZM15.5475 4.25818C8.415 4.25818 2.61 10.0632 2.61 17.1957C2.61 24.3282 8.415 30.1332 15.5475 30.1332C22.68 30.1332 28.485 24.3282 28.485 17.1957C28.485 10.0632 22.6856 4.25818 15.5475 4.25818Z" fill="#84C225"/>
<path d="M21.6563 12.4032C21.06 12.4032 20.52 11.9926 20.385 11.3851C19.44 7.18881 17.4488 4.25818 15.5475 4.25818C13.6463 4.25818 11.655 7.18881 10.71 11.3851C10.6335 11.722 10.4265 12.0148 10.1345 12.1993C9.84237 12.3839 9.48903 12.445 9.15191 12.3694C8.9849 12.3319 8.82694 12.2618 8.68705 12.1631C8.54716 12.0645 8.4281 11.9392 8.33667 11.7945C8.24524 11.6498 8.18324 11.4884 8.15422 11.3197C8.1252 11.151 8.12973 10.9783 8.16754 10.8113C9.44441 5.16381 12.2738 1.65381 15.5532 1.65381C18.8325 1.65381 21.6563 5.16381 22.9332 10.8113C23.0907 11.5144 22.6519 12.2119 21.9488 12.3694C21.8475 12.3919 21.7463 12.4032 21.6563 12.4032ZM15.5475 32.7488C12.2682 32.7488 9.43879 29.2444 8.16754 23.5969C8.14523 23.5029 8.1339 23.4067 8.13379 23.3101C8.13379 22.5901 8.71879 22.0051 9.43879 22.0051C10.08 22.0051 10.6144 22.4663 10.7213 23.0738C11.6663 27.2363 13.6463 30.1388 15.5419 30.1388C17.4375 30.1388 19.4232 27.2251 20.3682 23.0513C20.4283 22.7567 20.5881 22.4918 20.8207 22.3013C21.0532 22.1107 21.3444 22.0061 21.645 22.0051C21.8414 22.0046 22.0353 22.0486 22.2123 22.1337C22.3893 22.2187 22.5447 22.3428 22.667 22.4964C22.7892 22.65 22.8752 22.8294 22.9184 23.0209C22.9615 23.2125 22.9608 23.4113 22.9163 23.6026C21.6507 29.2444 18.8269 32.7488 15.5475 32.7488Z" fill="#84C225"/>
<path d="M15.5477 11.7451C14.8277 11.7451 14.2427 11.1601 14.2427 10.4401V2.95881C14.2427 2.23881 14.8277 1.65381 15.5477 1.65381C16.2677 1.65381 16.8527 2.23881 16.8527 2.95881V10.4457C16.8527 11.1657 16.2677 11.7451 15.5477 11.7451ZM15.5477 32.7488C14.8277 32.7488 14.2427 32.1638 14.2427 31.4438V23.9626C14.2427 23.2426 14.8277 22.6576 15.5477 22.6576C16.2677 22.6576 16.8527 23.2426 16.8527 23.9626V31.4438C16.8527 32.1638 16.2677 32.7488 15.5477 32.7488Z" fill="#84C225"/>
<path d="M15.5475 25.2675C13.3087 25.2675 11.1544 25.0369 9.15188 24.5869C9.11812 24.5812 9.07875 24.57 9.045 24.5588C3.465 23.2762 0 20.4637 0 17.2013C0 13.9219 3.50438 11.0981 9.15188 9.82687C11.1656 9.37125 13.32 9.14062 15.5475 9.14062C16.2675 9.14062 16.8525 9.72562 16.8525 10.4456C16.8525 11.1656 16.2675 11.7506 15.5475 11.7506C13.5112 11.7506 11.5481 11.9588 9.72563 12.375C5.535 13.3144 2.61 15.3 2.61 17.2013C2.61 19.1025 5.535 21.0937 9.72563 22.0331C9.75938 22.0387 9.79312 22.05 9.82687 22.0613C11.61 22.455 13.5337 22.6575 15.5419 22.6575C16.2619 22.6575 16.8469 23.2425 16.8469 23.9625C16.8478 24.1337 16.8149 24.3033 16.75 24.4617C16.6852 24.6201 16.5896 24.7641 16.4688 24.8854C16.348 25.0067 16.2044 25.1029 16.0463 25.1685C15.8882 25.2341 15.7187 25.2677 15.5475 25.2675Z" fill="#84C225"/>
<path d="M12.0879 15.2832C12.0879 15.317 12.0823 15.3507 12.0767 15.4013C12.0654 15.4463 12.0542 15.5138 12.0317 15.5982L11.0136 19.0463C10.9967 19.097 10.9798 19.1363 10.9573 19.1645C10.9296 19.1988 10.8925 19.2242 10.8504 19.2376C10.8054 19.2545 10.7379 19.2657 10.6479 19.2713C10.4213 19.2864 10.1939 19.2864 9.96732 19.2713C9.87732 19.2657 9.80982 19.2545 9.7592 19.2376C9.71617 19.2263 9.6784 19.2005 9.65232 19.1645C9.62776 19.1309 9.61051 19.0926 9.6017 19.052L8.96045 16.7345L8.9492 16.6951L8.93795 16.7345L8.34732 19.052C8.33607 19.1026 8.3192 19.142 8.2967 19.1701C8.26901 19.2044 8.23185 19.2298 8.18982 19.2432C8.1392 19.2601 8.06607 19.2713 7.9817 19.277C7.75319 19.2917 7.52396 19.2917 7.29545 19.277C7.21107 19.2713 7.13795 19.2601 7.09295 19.2432C7.04992 19.232 7.01215 19.2061 6.98607 19.1701C6.96151 19.1366 6.94426 19.0982 6.93545 19.0576L5.92857 15.6095C5.90045 15.5251 5.8892 15.4632 5.87795 15.4126C5.87232 15.3676 5.8667 15.3282 5.8667 15.2945C5.8667 15.2663 5.87232 15.2382 5.8892 15.2213C5.90607 15.1988 5.9342 15.182 5.97357 15.1707C6.01295 15.1595 6.0692 15.1482 6.14232 15.1426C6.20982 15.137 6.29982 15.137 6.4067 15.137C6.5192 15.137 6.61482 15.137 6.68232 15.1426C6.75545 15.1482 6.8117 15.1595 6.85107 15.1707C6.89045 15.1876 6.91857 15.2045 6.93545 15.227C6.95232 15.2495 6.96357 15.2832 6.9692 15.317L7.72295 18.1182L7.7342 18.1688L7.74545 18.1182L8.4542 15.317C8.46545 15.2832 8.4767 15.2551 8.49357 15.227C8.51045 15.2045 8.53857 15.182 8.57795 15.1707C8.61732 15.1538 8.66795 15.1482 8.73545 15.1426C8.80295 15.137 8.88732 15.137 8.9942 15.137C9.10107 15.137 9.18545 15.1426 9.25295 15.1482C9.32045 15.1538 9.37107 15.1651 9.41045 15.1763C9.44982 15.1876 9.47795 15.2045 9.4892 15.227C9.50607 15.2495 9.51732 15.272 9.52295 15.3001L10.2823 18.1182L10.2936 18.1632L10.3048 18.1126L11.0304 15.3113C11.0361 15.2776 11.0473 15.2495 11.0642 15.2213C11.0811 15.1988 11.1092 15.1763 11.1486 15.1651C11.1879 15.1482 11.2442 15.1426 11.3117 15.137C11.3792 15.1313 11.4692 15.1313 11.5704 15.1313C11.6717 15.1313 11.7617 15.1313 11.8292 15.137C11.8967 15.1426 11.9473 15.1538 11.9867 15.1651C12.0261 15.1763 12.0542 15.1932 12.0654 15.2157C12.0823 15.2326 12.0879 15.2551 12.0879 15.2832Z" fill="#84C225"/>
<path d="M12.0879 15.2832C12.0879 15.317 12.0823 15.3507 12.0767 15.4014C12.0654 15.4464 12.0542 15.5139 12.0317 15.5982L11.0136 19.0464C10.9967 19.097 10.9798 19.1364 10.9573 19.1645C10.9296 19.1988 10.8925 19.2242 10.8504 19.2376C10.8054 19.2545 10.7379 19.2657 10.6479 19.2714C10.4213 19.2864 10.1939 19.2864 9.96732 19.2714C9.87732 19.2657 9.80982 19.2545 9.7592 19.2376C9.71617 19.2264 9.6784 19.2005 9.65232 19.1645C9.62776 19.1309 9.61051 19.0926 9.6017 19.052L8.96045 16.7345L8.9492 16.6951L8.93795 16.7345L8.34732 19.052C8.33607 19.1026 8.3192 19.142 8.2967 19.1701C8.26901 19.2044 8.23185 19.2299 8.18982 19.2432C8.1392 19.2601 8.06607 19.2714 7.9817 19.277C7.75319 19.2917 7.52396 19.2917 7.29545 19.277C7.21107 19.2714 7.13795 19.2601 7.09295 19.2432C7.04992 19.232 7.01215 19.2061 6.98607 19.1701C6.96151 19.1366 6.94426 19.0982 6.93545 19.0576L5.92857 15.6095C5.90045 15.5251 5.8892 15.4632 5.87795 15.4126C5.87232 15.3676 5.8667 15.3282 5.8667 15.2945C5.8667 15.2664 5.87232 15.2382 5.8892 15.2214C5.90607 15.1989 5.9342 15.182 5.97357 15.1707C6.01295 15.1595 6.0692 15.1482 6.14232 15.1426C6.20982 15.137 6.29982 15.137 6.4067 15.137C6.5192 15.137 6.61482 15.137 6.68232 15.1426C6.75545 15.1482 6.8117 15.1595 6.85107 15.1707C6.89045 15.1876 6.91857 15.2045 6.93545 15.227C6.95232 15.2495 6.96357 15.2832 6.9692 15.317L7.72295 18.1182L7.7342 18.1689L7.74545 18.1182L8.4542 15.317C8.46545 15.2832 8.4767 15.2551 8.49357 15.227C8.51045 15.2045 8.53857 15.182 8.57795 15.1707C8.61732 15.1539 8.66795 15.1482 8.73545 15.1426C8.80295 15.137 8.88732 15.137 8.9942 15.137C9.10107 15.137 9.18545 15.1426 9.25295 15.1482C9.32045 15.1539 9.37107 15.1651 9.41045 15.1764C9.44982 15.1876 9.47795 15.2045 9.4892 15.227C9.50607 15.2495 9.51732 15.272 9.52295 15.3001L10.2823 18.1182L10.2936 18.1632L10.3048 18.1126L11.0304 15.3114C11.0361 15.2776 11.0473 15.2495 11.0642 15.2214C11.0811 15.1989 11.1092 15.1764 11.1486 15.1651C11.1879 15.1482 11.2442 15.1426 11.3117 15.137C11.3792 15.1314 11.4692 15.1314 11.5704 15.1314C11.6717 15.1314 11.7617 15.1314 11.8292 15.137C11.8967 15.1426 11.9473 15.1539 11.9867 15.1651C12.0261 15.1764 12.0542 15.1932 12.0654 15.2157C12.0823 15.2326 12.0879 15.2551 12.0879 15.2832ZM18.6579 15.2832C18.6579 15.317 18.6523 15.3507 18.6467 15.4014C18.6355 15.4464 18.6242 15.5139 18.6017 15.5982L17.5836 19.0464C17.5667 19.097 17.5498 19.1364 17.5273 19.1645C17.4996 19.1988 17.4625 19.2242 17.4204 19.2376C17.3754 19.2545 17.3079 19.2657 17.2179 19.2714C16.9913 19.2864 16.7639 19.2864 16.5373 19.2714C16.4473 19.2657 16.3798 19.2545 16.3292 19.2376C16.2862 19.2264 16.2484 19.2005 16.2223 19.1645C16.1978 19.1309 16.1805 19.0926 16.1717 19.052L15.5304 16.7345L15.5192 16.6951L15.5079 16.7345L14.9173 19.052C14.9061 19.1026 14.8892 19.142 14.8667 19.1701C14.839 19.2044 14.8018 19.2299 14.7598 19.2432C14.7092 19.2601 14.6361 19.2714 14.5517 19.277C14.3232 19.2917 14.094 19.2917 13.8654 19.277C13.7811 19.2714 13.7079 19.2601 13.6629 19.2432C13.6199 19.232 13.5821 19.2061 13.5561 19.1701C13.5315 19.1366 13.5143 19.0982 13.5054 19.0576L12.4986 15.6095C12.4704 15.5251 12.4592 15.4632 12.4479 15.4126C12.4423 15.3676 12.4367 15.3282 12.4367 15.2945C12.4367 15.2664 12.4423 15.2382 12.4592 15.2214C12.4761 15.1989 12.5042 15.182 12.5436 15.1707C12.5829 15.1595 12.6392 15.1482 12.7123 15.1426C12.7798 15.137 12.8698 15.137 12.9767 15.137C13.0892 15.137 13.1848 15.137 13.2523 15.1426C13.3254 15.1482 13.3817 15.1595 13.4211 15.1707C13.4604 15.1876 13.4886 15.2045 13.5054 15.227C13.5223 15.2495 13.5336 15.2832 13.5392 15.317L14.2929 18.1182L14.3042 18.1689L14.3154 18.1182L15.0242 15.317C15.0354 15.2832 15.0467 15.2551 15.0636 15.227C15.0804 15.2045 15.1086 15.182 15.1479 15.1707C15.1873 15.1539 15.2379 15.1482 15.3054 15.1426C15.3729 15.137 15.4573 15.137 15.5642 15.137C15.6711 15.137 15.7554 15.1426 15.8229 15.1482C15.8904 15.1539 15.9411 15.1651 15.9804 15.1764C16.0198 15.1876 16.0479 15.2045 16.0592 15.227C16.0761 15.2495 16.0873 15.272 16.0929 15.3001L16.8523 18.1182L16.8636 18.1632L16.8748 18.107L17.6004 15.3057C17.6061 15.272 17.6173 15.2439 17.6342 15.2157C17.6511 15.1932 17.6792 15.1707 17.7186 15.1595C17.7579 15.1426 17.8142 15.137 17.8817 15.1314C17.9492 15.1257 18.0392 15.1257 18.1404 15.1257C18.2417 15.1257 18.3317 15.1257 18.3992 15.1314C18.4667 15.137 18.5173 15.1482 18.5567 15.1595C18.5961 15.1707 18.6242 15.1876 18.6354 15.2101C18.6523 15.2326 18.6579 15.2551 18.6579 15.2832Z" fill="#84C225"/>
<path d="M18.6583 15.2832C18.6583 15.317 18.6526 15.3507 18.647 15.4014C18.6358 15.4464 18.6245 15.5139 18.602 15.5982L17.5839 19.0464C17.567 19.097 17.5501 19.1364 17.5276 19.1645C17.4999 19.1988 17.4628 19.2242 17.4208 19.2376C17.3758 19.2545 17.3083 19.2657 17.2183 19.2714C16.9916 19.2864 16.7643 19.2864 16.5376 19.2714C16.4476 19.2657 16.3801 19.2545 16.3295 19.2376C16.2865 19.2264 16.2487 19.2005 16.2226 19.1645C16.1981 19.1309 16.1808 19.0926 16.172 19.052L15.5308 16.7345L15.5195 16.6951L15.5083 16.7345L14.9176 19.052C14.9064 19.1026 14.8895 19.142 14.867 19.1701C14.8393 19.2044 14.8022 19.2299 14.7601 19.2432C14.7095 19.2601 14.6364 19.2714 14.552 19.277C14.3235 19.2917 14.0943 19.2917 13.8658 19.277C13.7814 19.2714 13.7083 19.2601 13.6633 19.2432C13.6202 19.232 13.5825 19.2061 13.5564 19.1701C13.5318 19.1366 13.5146 19.0982 13.5058 19.0576L12.4989 15.6095C12.4708 15.5251 12.4595 15.4632 12.4483 15.4126C12.4426 15.3676 12.437 15.3282 12.437 15.2945C12.437 15.2664 12.4426 15.2382 12.4595 15.2214C12.4764 15.1989 12.5045 15.182 12.5439 15.1707C12.5833 15.1595 12.6395 15.1482 12.7126 15.1426C12.7801 15.137 12.8701 15.137 12.977 15.137C13.0895 15.137 13.1851 15.137 13.2526 15.1426C13.3258 15.1482 13.382 15.1595 13.4214 15.1707C13.4608 15.1876 13.4889 15.2045 13.5058 15.227C13.5226 15.2495 13.5339 15.2832 13.5395 15.317L14.2933 18.1182L14.3045 18.1689L14.3158 18.1182L15.0245 15.317C15.0358 15.2832 15.047 15.2551 15.0639 15.227C15.0808 15.2045 15.1089 15.182 15.1483 15.1707C15.1876 15.1539 15.2383 15.1482 15.3058 15.1426C15.3733 15.137 15.4576 15.137 15.5645 15.137C15.6714 15.137 15.7558 15.1426 15.8233 15.1482C15.8908 15.1539 15.9414 15.1651 15.9808 15.1764C16.0201 15.1876 16.0483 15.2045 16.0595 15.227C16.0764 15.2495 16.0876 15.272 16.0933 15.3001L16.8526 18.1182L16.8639 18.1632L16.8751 18.107L17.6008 15.3057C17.6064 15.272 17.6176 15.2439 17.6345 15.2157C17.6514 15.1932 17.6795 15.1707 17.7189 15.1595C17.7583 15.1426 17.8145 15.137 17.882 15.1314C17.9495 15.1257 18.0395 15.1257 18.1408 15.1257C18.242 15.1257 18.332 15.1257 18.3995 15.1314C18.467 15.137 18.5176 15.1482 18.557 15.1595C18.5964 15.1707 18.6245 15.1876 18.6358 15.2101C18.6526 15.2326 18.6583 15.2551 18.6583 15.2832ZM25.2283 15.2832C25.2283 15.317 25.2226 15.3507 25.217 15.4014C25.2058 15.4464 25.1945 15.5139 25.172 15.5982L24.1539 19.0464C24.137 19.097 24.1201 19.1364 24.0976 19.1645C24.0699 19.1988 24.0328 19.2242 23.9908 19.2376C23.9458 19.2545 23.8783 19.2657 23.7883 19.2714C23.5616 19.2864 23.3343 19.2864 23.1076 19.2714C23.0176 19.2657 22.9501 19.2545 22.8995 19.2376C22.8565 19.2264 22.8187 19.2005 22.7926 19.1645C22.7681 19.1309 22.7508 19.0926 22.742 19.052L22.1008 16.7345L22.0895 16.6951L22.0783 16.7345L21.4876 19.052C21.4764 19.1026 21.4595 19.142 21.437 19.1701C21.4093 19.2044 21.3722 19.2299 21.3301 19.2432C21.2795 19.2601 21.2064 19.2714 21.122 19.277C20.8935 19.2917 20.6643 19.2917 20.4358 19.277C20.3514 19.2714 20.2783 19.2601 20.2333 19.2432C20.1902 19.232 20.1525 19.2061 20.1264 19.1701C20.1018 19.1366 20.0846 19.0982 20.0758 19.0576L19.0689 15.6095C19.0408 15.5251 19.0295 15.4632 19.0183 15.4126C19.0126 15.3676 19.007 15.3282 19.007 15.2945C19.007 15.2664 19.0126 15.2382 19.0295 15.2214C19.0464 15.1989 19.0745 15.182 19.1139 15.1707C19.1533 15.1595 19.2095 15.1482 19.2826 15.1426C19.3501 15.137 19.4401 15.137 19.547 15.137C19.6595 15.137 19.7551 15.137 19.8226 15.1426C19.8958 15.1482 19.952 15.1595 19.9914 15.1707C20.0308 15.1876 20.0589 15.2045 20.0758 15.227C20.0926 15.2495 20.1039 15.2832 20.1095 15.317L20.8633 18.1182L20.8745 18.1689L20.8858 18.1182L21.5945 15.317C21.6058 15.2832 21.617 15.2551 21.6339 15.227C21.6508 15.2045 21.6789 15.182 21.7183 15.1707C21.7576 15.1539 21.8083 15.1482 21.8758 15.1426C21.9433 15.137 22.0276 15.137 22.1345 15.137C22.2414 15.137 22.3258 15.1426 22.3933 15.1482C22.4608 15.1539 22.5114 15.1651 22.5508 15.1764C22.5901 15.1876 22.6183 15.2045 22.6295 15.227C22.6464 15.2495 22.6576 15.272 22.6633 15.3001L23.4226 18.1182L23.4339 18.1632L23.4451 18.1126L24.1708 15.3114C24.1764 15.2776 24.1876 15.2495 24.2045 15.2214C24.2214 15.1989 24.2495 15.1764 24.2889 15.1651C24.3283 15.1482 24.3845 15.1426 24.452 15.137C24.5195 15.1314 24.6095 15.1314 24.7108 15.1314C24.812 15.1314 24.902 15.1314 24.9695 15.137C25.037 15.1426 25.0876 15.1539 25.127 15.1651C25.1664 15.1764 25.1945 15.1932 25.2058 15.2157C25.2226 15.2326 25.2283 15.2551 25.2283 15.2832Z" fill="#84C225"/>
<path d="M25.2281 15.2832C25.2281 15.317 25.2225 15.3507 25.2168 15.4013C25.2056 15.4463 25.1943 15.5138 25.1718 15.5982L24.1537 19.0463C24.1368 19.097 24.12 19.1363 24.0975 19.1645C24.0698 19.1988 24.0326 19.2242 23.9906 19.2376C23.9456 19.2545 23.8781 19.2657 23.7881 19.2713C23.5615 19.2864 23.3341 19.2864 23.1075 19.2713C23.0175 19.2657 22.95 19.2545 22.8993 19.2376C22.8563 19.2263 22.8185 19.2005 22.7925 19.1645C22.7679 19.1309 22.7507 19.0926 22.7418 19.052L22.1006 16.7345L22.0893 16.6951L22.0781 16.7345L21.4875 19.052C21.4762 19.1026 21.4593 19.142 21.4368 19.1701C21.4091 19.2044 21.372 19.2298 21.33 19.2432C21.2793 19.2601 21.2062 19.2713 21.1218 19.277C20.8933 19.2917 20.6641 19.2917 20.4356 19.277C20.3512 19.2713 20.2781 19.2601 20.2331 19.2432C20.1901 19.232 20.1523 19.2061 20.1262 19.1701C20.1016 19.1366 20.0844 19.0982 20.0756 19.0576L19.0687 15.6095C19.0406 15.5251 19.0293 15.4632 19.0181 15.4126C19.0125 15.3676 19.0068 15.3282 19.0068 15.2945C19.0068 15.2663 19.0125 15.2382 19.0293 15.2213C19.0462 15.1988 19.0743 15.182 19.1137 15.1707C19.1531 15.1595 19.2093 15.1482 19.2825 15.1426C19.35 15.137 19.44 15.137 19.5468 15.137C19.6593 15.137 19.755 15.137 19.8225 15.1426C19.8956 15.1482 19.9518 15.1595 19.9912 15.1707C20.0306 15.1876 20.0587 15.2045 20.0756 15.227C20.0925 15.2495 20.1037 15.2832 20.1093 15.317L20.8631 18.1182L20.8743 18.1688L20.8856 18.1182L21.5943 15.317C21.6056 15.2832 21.6168 15.2551 21.6337 15.227C21.6506 15.2045 21.6787 15.182 21.7181 15.1707C21.7575 15.1538 21.8081 15.1482 21.8756 15.1426C21.9431 15.137 22.0275 15.137 22.1343 15.137C22.2412 15.137 22.3256 15.1426 22.3931 15.1482C22.4606 15.1538 22.5112 15.1651 22.5506 15.1763C22.59 15.1876 22.6181 15.2045 22.6293 15.227C22.6462 15.2495 22.6575 15.272 22.6631 15.3001L23.4225 18.1182L23.4337 18.1632L23.445 18.1126L24.1706 15.3113C24.1762 15.2776 24.1875 15.2495 24.2043 15.2213C24.2212 15.1988 24.2493 15.1763 24.2887 15.1651C24.3281 15.1482 24.3843 15.1426 24.4518 15.137C24.5193 15.1313 24.6093 15.1313 24.7106 15.1313C24.8118 15.1313 24.9018 15.1313 24.9693 15.137C25.0368 15.1426 25.0875 15.1538 25.1268 15.1651C25.1662 15.1763 25.1943 15.1932 25.2056 15.2157C25.2225 15.2326 25.2281 15.2551 25.2281 15.2832ZM29.3568 33.9132C28.6368 33.9132 28.0518 33.3282 28.0518 32.6082V27.7032C28.0518 26.9832 28.6368 26.3982 29.3568 26.3982H34.2618C34.9818 26.3982 35.5668 26.9832 35.5668 27.7032C35.5668 28.4232 34.9818 29.0082 34.2618 29.0082H30.6618V32.6082C30.6606 32.954 30.5228 33.2852 30.2783 33.5297C30.0338 33.7742 29.7026 33.912 29.3568 33.9132Z" fill="#84C225"/>
<path d="M34.6951 34.3463C34.3632 34.3463 34.0257 34.2169 33.7726 33.9638L28.4288 28.62C27.917 28.1138 27.917 27.2869 28.4288 26.775C28.9351 26.2631 29.762 26.2631 30.2738 26.775L35.6176 32.1188C36.1295 32.625 36.1295 33.4519 35.6176 33.9638C35.3645 34.2225 35.027 34.3463 34.6951 34.3463Z" fill="#84C225"/>
</g>
<defs>
<clipPath id="clip0_77_499">
<rect width="36" height="36" fill="white"/>
</clipPath>
</defs>
</svg>
