<svg width="36" height="36" viewBox="0 0 36 36" fill="none" xmlns="http://www.w3.org/2000/svg">
<g clip-path="url(#clip0_76_434)">
<path d="M34.8412 4.2356H1.15875C0.523125 4.2356 0 4.75872 0 5.39435V25.1831C0 25.8243 0.523125 26.3418 1.15875 26.3418H16.0481V30.1837H10.9294C10.4962 30.1837 10.1419 30.5381 10.1419 30.9712C10.1419 31.4043 10.4962 31.7587 10.9294 31.7587H25.0819C25.515 31.7587 25.8694 31.4043 25.8694 30.9712C25.8694 30.5381 25.515 30.1837 25.0819 30.1837H19.9631V26.3418H34.8469C35.4937 26.3418 36.0056 25.8187 36.0056 25.1831V5.39435C36 4.75872 35.4825 4.2356 34.8412 4.2356ZM34.5487 24.3112C34.5487 24.6318 34.2956 24.8906 33.9694 24.8906H2.03062C1.71 24.8906 1.45125 24.6318 1.45125 24.3112V6.26622C1.45125 5.9456 1.71 5.68685 2.03062 5.68685H33.9637C34.29 5.68685 34.5431 5.9456 34.5431 6.26622V24.3112H34.5487Z" fill="#84C225"/>
<path d="M2.61572 23.732H33.3901V6.8457H2.61572V23.732ZM17.3813 21.8476C16.5826 21.8476 15.9357 21.2007 15.9357 20.402C15.9357 19.6088 16.5826 18.962 17.3813 18.962C18.1745 18.962 18.8213 19.6088 18.8213 20.402C18.8213 21.2007 18.1745 21.8476 17.3813 21.8476ZM21.3976 21.8476C20.6045 21.8476 19.9576 21.2007 19.9576 20.402C19.9576 19.6088 20.6045 18.962 21.3976 18.962C22.1907 18.962 22.8432 19.6088 22.8432 20.402C22.8432 21.2007 22.1907 21.8476 21.3976 21.8476ZM11.7845 8.74133L13.2132 8.7357C13.6688 8.72445 14.0682 9.02258 14.2088 9.45008L14.6195 10.7382H23.7601C24.0976 10.7382 24.4126 10.907 24.6038 11.177C24.8007 11.4526 24.8457 11.8013 24.7332 12.122L23.4451 15.767C23.2932 16.1776 22.8995 16.4588 22.4663 16.4588H16.4588L16.6782 17.1507H22.5957C22.9163 17.1507 23.1751 17.4095 23.1751 17.7301C23.1751 18.0563 22.9163 18.3095 22.5957 18.3095H16.5882C16.1438 18.3095 15.7445 18.0226 15.6095 17.5951L13.1345 9.88883L11.7957 9.89445C11.4863 9.91133 11.2163 9.6357 11.2163 9.31508C11.2051 9.00008 11.4695 8.74133 11.7845 8.74133Z" fill="#84C225"/>
<path d="M22.3707 15.3001L23.5801 11.897H14.9907L16.0876 15.3001H22.3707Z" fill="#84C225"/>
<path d="M17.3814 19.8337C17.0664 19.8337 16.8076 20.0869 16.8076 20.3962C16.8076 20.7112 17.0664 20.97 17.3814 20.97C17.6907 20.97 17.9495 20.7112 17.9495 20.3962C17.9439 20.0925 17.6851 19.8337 17.3814 19.8337ZM21.3976 19.8337C21.0939 19.8337 20.8351 20.0925 20.8351 20.3962C20.8351 20.7112 21.0882 20.97 21.3976 20.97C21.7126 20.97 21.9714 20.7112 21.9714 20.3962C21.9657 20.0869 21.7126 19.8337 21.3976 19.8337Z" fill="#84C225"/>
</g>
<defs>
<clipPath id="clip0_76_434">
<rect width="36" height="36" fill="white"/>
</clipPath>
</defs>
</svg>
