<svg width="36" height="36" viewBox="0 0 36 36" fill="none" xmlns="http://www.w3.org/2000/svg">
<path d="M33.6605 13.5781C33.5554 12.6663 32.7272 12.0173 31.8194 12.1183C23.9872 13.0207 20.9779 8.03265 20.8198 7.81521C20.556 7.44758 20.1691 7.22078 19.7554 7.14871L19.751 7.12329H18.3139C17.4833 8.27796 16.1376 9.02553 14.6091 9.02553C13.089 9.02553 11.7349 8.27796 10.9043 7.12329H8.74457L8.74472 7.12646C8.64428 7.12639 8.54276 7.13258 8.44037 7.1513C6.21399 7.56624 2.46012 8.63947 2.3324 11.1636C2.22951 13.1934 4.21822 14.6361 9.16426 16.1159L9.20976 17.0915H9.21185V33.0218C9.21185 34.2691 10.2229 35.2802 11.4701 35.2802C12.7173 35.2802 13.7285 34.2691 13.7285 33.0218V17.0914H14.7929V33.0218C14.7929 34.269 15.804 35.2801 17.0512 35.2801C18.2985 35.2801 19.3095 34.269 19.3095 33.0218V17.0914H19.3108L20.3312 11.9893C23.528 14.5824 26.8066 16.0419 32.2007 15.4191C33.1125 15.3137 33.7659 14.4895 33.6605 13.5781ZM6.0854 11.3416C6.75255 11.0173 7.8661 10.6591 8.8998 10.4511L8.99909 12.5797C7.43 12.0548 6.55311 11.6276 6.0854 11.3416ZM14.6091 10.446C15.0494 10.446 15.4066 10.8032 15.4066 11.2434C15.4066 11.6837 15.0494 12.0409 14.6091 12.0409C14.1689 12.0409 13.8116 11.6837 13.8116 11.2434C13.8116 10.8032 14.1689 10.446 14.6091 10.446ZM14.6091 14.6326C14.1689 14.6326 13.8116 14.2754 13.8116 13.8351C13.8116 13.3949 14.1689 13.0377 14.6091 13.0377C15.0494 13.0377 15.4066 13.3949 15.4066 13.8351C15.4066 14.2754 15.0494 14.6326 14.6091 14.6326Z" fill="#84C225"/>
<path d="M14.6108 8.19645C16.6754 8.19645 18.349 6.52278 18.349 4.45821C18.349 2.39364 16.6754 0.719971 14.6108 0.719971C12.5462 0.719971 10.8726 2.39364 10.8726 4.45821C10.8726 6.52278 12.5462 8.19645 14.6108 8.19645Z" fill="#84C225"/>
</svg>
