<svg width="36" height="36" viewBox="0 0 36 36" fill="none" xmlns="http://www.w3.org/2000/svg">
<path d="M31.0084 1.12488C30.0591 1.07087 29.1174 1.32146 28.3204 1.84012C27.5235 2.35878 26.9131 3.1184 26.5781 4.00826L26.0505 3.12851C25.9894 3.01985 25.8949 2.93379 25.781 2.88313C25.6671 2.83246 25.5399 2.81988 25.4182 2.84726C25.0718 2.92826 24.8794 3.38838 25.0661 3.69101L26.1911 5.62488C26.3374 5.88363 26.7086 5.98488 26.9651 5.83638L28.9339 4.71138C29.0601 4.63272 29.152 4.50923 29.191 4.36568C29.23 4.22213 29.2133 4.06914 29.1443 3.93738C29.0658 3.81123 28.9426 3.71935 28.7993 3.68013C28.656 3.64092 28.5031 3.65726 28.3714 3.72588L27.7729 4.07801C28.4816 2.70101 30.0409 1.93601 31.6057 2.35563C32.0328 2.47237 32.4327 2.67216 32.7825 2.94358C33.1322 3.21499 33.4251 3.5527 33.6442 3.93738C33.7916 4.19613 34.1606 4.29513 34.4183 4.14776C34.544 4.06894 34.6354 3.94557 34.6742 3.8023C34.713 3.65903 34.6963 3.50639 34.6275 3.37488C34.0278 2.33755 33.0423 1.57933 31.8859 1.26551C31.5986 1.18838 31.3053 1.14126 31.0084 1.12488ZM34.0312 5.69576L32.0625 6.82076C31.7498 6.92988 31.5956 7.35288 31.7655 7.63751C31.9342 7.92326 32.3786 7.99076 32.625 7.76913L33.2932 7.38326C32.9595 8.09508 32.3844 8.66565 31.67 8.99373C30.9556 9.3218 30.148 9.38616 29.3906 9.17538C28.9634 9.05878 28.5633 8.85905 28.2133 8.58763C27.8633 8.31621 27.5703 7.97844 27.351 7.59363C27.2724 7.46767 27.1491 7.37602 27.0058 7.33702C26.8625 7.29802 26.7098 7.31453 26.5781 7.38326C26.452 7.46173 26.3601 7.58494 26.3209 7.72824C26.2817 7.87154 26.298 8.02436 26.3666 8.15613C26.9629 9.19001 27.9562 9.99214 29.1094 10.3004C31.3538 10.9023 33.6431 9.65013 34.4531 7.52276L34.9459 8.40251C35.0921 8.66013 35.4611 8.76026 35.7188 8.61288C35.8449 8.53442 35.9368 8.41121 35.976 8.26791C36.0152 8.1246 35.9989 7.97178 35.9302 7.84001L34.8052 5.90613C34.6084 5.56638 34.1876 5.53826 34.0312 5.69463V5.69576ZM3.375 12.3749H29.25V17.9999H26.4375C26.3794 17.9907 26.3201 17.9907 26.262 17.9999C26.1462 18.0406 26.0464 18.117 25.9768 18.2181C25.9073 18.3192 25.8716 18.4397 25.875 18.5624V28.1249H3.375V12.3749ZM27 19.1249H34.875V20.2499H27V19.1249ZM27 21.3749H34.875V30.3749H27V28.1249V21.3749ZM1.40625 29.2499H25.875V30.3749H3.09375C2.24212 30.3749 1.68862 29.8596 1.40625 29.2499ZM27 31.4999H34.875V32.6249H27V31.4999Z" fill="#84C225"/>
</svg>
