<svg width="36" height="36" viewBox="0 0 36 36" fill="none" xmlns="http://www.w3.org/2000/svg">
<g clip-path="url(#clip0_77_492)">
<path d="M33.1875 1.6875H2.8125C1.88052 1.6875 1.125 2.44302 1.125 3.375V18C1.125 18.932 1.88052 19.6875 2.8125 19.6875H33.1875C34.1195 19.6875 34.875 18.932 34.875 18V3.375C34.875 2.44302 34.1195 1.6875 33.1875 1.6875Z" fill="white"/>
<path d="M23.625 33.1875C28.9062 33.1875 33.1875 28.9062 33.1875 23.625C33.1875 18.3438 28.9062 14.0625 23.625 14.0625C18.3438 14.0625 14.0625 18.3438 14.0625 23.625C14.0625 28.9062 18.3438 33.1875 23.625 33.1875Z" fill="#B8F78D"/>
<path opacity="0.1" d="M7.875 9.28125H6.75C6.60088 9.28106 6.45791 9.22173 6.35247 9.11628C6.24702 9.01084 6.18769 8.86788 6.1875 8.71875V7.59375C6.18769 7.44463 6.24702 7.30166 6.35247 7.19622C6.45791 7.09077 6.60088 7.03144 6.75 7.03125H9.5625C9.85805 7.02696 10.14 6.90655 10.3475 6.69603C10.555 6.48552 10.6713 6.20181 10.6713 5.90623C10.6713 5.61066 10.555 5.32695 10.3475 5.11644C10.14 4.90594 9.85801 4.78553 9.56247 4.78125H6.75C6.00435 4.78213 5.28949 5.07872 4.76223 5.60598C4.23497 6.13324 3.93838 6.8481 3.9375 7.59375V8.71875C3.93838 9.4644 4.23497 10.1793 4.76223 10.7065C5.28949 11.2338 6.00435 11.5304 6.75 11.5312H7.875C8.02413 11.5314 8.16709 11.5908 8.27253 11.6962C8.37798 11.8017 8.43731 11.9446 8.4375 12.0938V13.2188C8.43731 13.3679 8.37798 13.5108 8.27253 13.6163C8.16709 13.7217 8.02413 13.7811 7.875 13.7812H5.0625C4.76413 13.7812 4.47798 13.8998 4.267 14.1108C4.05603 14.3217 3.9375 14.6079 3.9375 14.9062C3.9375 15.2046 4.05603 15.4908 4.267 15.7017C4.47798 15.9127 4.76413 16.0312 5.0625 16.0312H7.875C8.62065 16.0304 9.33551 15.7338 9.86277 15.2065C10.39 14.6793 10.6866 13.9644 10.6875 13.2188V12.0938C10.6866 11.3481 10.39 10.6332 9.86277 10.106C9.33551 9.57872 8.62065 9.28213 7.875 9.28125Z" fill="black"/>
<path opacity="0.1" d="M33.1874 1.68752H2.81242C2.47702 1.68572 2.14888 1.78515 1.8709 1.97281C1.59291 2.16048 1.37801 2.42765 1.25429 2.7394C1.30587 2.67402 1.3717 2.62128 1.44677 2.58521C1.52183 2.54914 1.60414 2.53069 1.68742 2.53127H32.0624C32.2115 2.53172 32.3543 2.59113 32.4597 2.69652C32.5651 2.80191 32.6245 2.94473 32.6249 3.09377V17.7188C32.6224 17.8054 32.6008 17.8905 32.5618 17.9679C32.5228 18.0454 32.4673 18.1133 32.3992 18.167C32.331 18.2206 32.252 18.2586 32.1676 18.2784C32.0831 18.2981 31.9954 18.2991 31.9105 18.2813C31.2218 17.0139 30.2866 15.897 29.1599 14.9963C29.5777 14.4978 29.8085 13.8692 29.8124 13.2188V7.59377C29.8121 6.84794 29.5157 6.13272 28.9884 5.60533C28.461 5.07795 27.7458 4.78154 26.9999 4.78127H24.7499C24.0041 4.78154 23.2889 5.07795 22.7615 5.60533C22.2341 6.13272 21.9377 6.84794 21.9374 7.59377V12.6732C20.4755 12.7496 19.045 13.1268 17.7355 13.7813H15.7499C15.6009 13.7808 15.4581 13.7214 15.3527 13.616C15.2473 13.5106 15.1879 13.3678 15.1874 13.2188V11.5313H18.5624C18.8581 11.5272 19.1403 11.4069 19.3479 11.1963C19.5556 10.9858 19.672 10.702 19.672 10.4063C19.672 10.1106 19.5556 9.82674 19.3479 9.6162C19.1403 9.40567 18.8581 9.28535 18.5624 9.28127H15.1874V7.59377C15.1879 7.44473 15.2473 7.30191 15.3527 7.19652C15.4581 7.09113 15.6009 7.03172 15.7499 7.03127H18.5624C18.8577 7.02661 19.1393 6.90602 19.3465 6.69555C19.5537 6.48508 19.6698 6.2016 19.6698 5.90627C19.6698 5.61095 19.5537 5.32746 19.3465 5.11699C19.1393 4.90652 18.8577 4.78594 18.5624 4.78127H15.7499C15.0041 4.78154 14.2889 5.07795 13.7615 5.60533C13.2341 6.13272 12.9377 6.84794 12.9374 7.59377V13.2188C12.9392 13.8079 13.1265 14.3816 13.4729 14.8582C13.8192 15.3348 14.307 15.6902 14.8668 15.8738C14.1684 16.5924 13.5705 17.4023 13.0893 18.2813H1.68742C1.53837 18.2808 1.39555 18.2214 1.29016 18.116C1.18477 18.0106 1.12536 17.8678 1.12492 17.7188C1.09112 17.9616 1.10931 18.2088 1.17828 18.4441C1.24726 18.6794 1.36543 18.8973 1.52499 19.0834C1.68454 19.2696 1.88183 19.4197 2.10378 19.5239C2.32573 19.628 2.56728 19.6838 2.81242 19.6875H14.8837C16.8749 15.6206 22.1343 13.5056 26.4712 15.8963C31.3649 18.405 32.4618 25.3631 28.5355 29.2331C23.4055 34.5882 14.1693 30.8981 14.068 23.5294C14.0541 24.7931 14.291 26.047 14.7651 27.2184C15.2392 28.3899 15.941 29.4556 16.8299 30.3539C17.7188 31.2522 18.7771 31.9652 19.9435 32.4516C21.1099 32.938 22.3612 33.1882 23.6249 33.1875C30.5549 33.2775 35.1843 25.7738 32.3324 19.6875H33.1874C33.4316 19.6808 33.6716 19.623 33.8921 19.5179C34.1126 19.4128 34.3086 19.2627 34.4676 19.0772C34.6265 18.8918 34.7449 18.6751 34.8151 18.4411C34.8852 18.2072 34.9056 17.9611 34.8749 17.7188V3.37502C34.8752 3.15334 34.8318 2.93377 34.7471 2.7289C34.6624 2.52402 34.5381 2.33788 34.3813 2.18112C34.2246 2.02436 34.0384 1.90007 33.8335 1.81537C33.6287 1.73067 33.4091 1.68723 33.1874 1.68752ZM27.5624 13.2188C27.4443 14.0288 26.9774 13.6238 26.4937 13.4269C25.7487 13.1366 24.9759 12.9236 24.1874 12.7913V7.59377C24.1879 7.44473 24.2473 7.30191 24.3527 7.19652C24.4581 7.09113 24.6009 7.03172 24.7499 7.03127H26.9999C27.149 7.03172 27.2918 7.09113 27.3972 7.19652C27.5026 7.30191 27.562 7.44473 27.5624 7.59377V13.2188Z" fill="black"/>
<path d="M7.875 7.03125H10.6875C10.983 7.02696 11.265 6.90654 11.4725 6.69603C11.68 6.48551 11.7963 6.2018 11.7963 5.90622C11.7963 5.61065 11.68 5.32695 11.4725 5.11644C11.265 4.90593 10.983 4.78553 10.6874 4.78125H7.875C7.12935 4.78213 6.41449 5.07872 5.88723 5.60598C5.35997 6.13324 5.06338 6.8481 5.0625 7.59375V8.71875C5.06338 9.4644 5.35997 10.1793 5.88723 10.7065C6.41449 11.2338 7.12935 11.5304 7.875 11.5312H9C9.14913 11.5314 9.29209 11.5908 9.39753 11.6962C9.50298 11.8017 9.56231 11.9446 9.5625 12.0938V13.2188C9.56231 13.3679 9.50298 13.5108 9.39753 13.6163C9.29209 13.7217 9.14913 13.7811 9 13.7812H6.1875C5.88913 13.7812 5.60298 13.8998 5.39201 14.1108C5.18103 14.3217 5.0625 14.6079 5.0625 14.9062C5.0625 15.2046 5.18103 15.4908 5.39201 15.7017C5.60298 15.9127 5.88913 16.0312 6.1875 16.0312H9C9.74565 16.0304 10.4605 15.7338 10.9878 15.2065C11.515 14.6793 11.8116 13.9644 11.8125 13.2188V12.0938C11.8116 11.3481 11.515 10.6332 10.9878 10.106C10.4605 9.57872 9.74565 9.28213 9 9.28125H7.875C7.72588 9.28106 7.58291 9.22173 7.47747 9.11628C7.37202 9.01084 7.31269 8.86788 7.3125 8.71875V7.59375C7.31269 7.44463 7.37202 7.30166 7.47747 7.19622C7.58291 7.09077 7.72588 7.03144 7.875 7.03125Z" fill="#84C225"/>
<path d="M36 17.7188V3.09375C35.9991 2.3481 35.7025 1.63324 35.1753 1.10598C34.648 0.578723 33.9332 0.282125 33.1875 0.28125H2.8125C2.06685 0.282125 1.35199 0.578723 0.824729 1.10598C0.297473 1.63324 0.000875344 2.3481 0 3.09375L0 17.7188C0.000875344 18.4644 0.297473 19.1793 0.824729 19.7065C1.35199 20.2338 2.06685 20.5304 2.8125 20.5312H13.3273C11.3867 27.1716 16.7023 34.1348 23.6251 34.0312C26.0718 34.0374 28.4454 33.1971 30.3431 31.6527L34.0796 35.3892C34.2906 35.6001 34.5767 35.7186 34.875 35.7186C35.1733 35.7186 35.4595 35.6001 35.6704 35.3892C35.8814 35.1782 35.9999 34.8921 35.9999 34.5938C35.9999 34.2954 35.8814 34.0093 35.6704 33.7983L31.9338 30.0618C33.0115 28.7325 33.7525 27.1629 34.094 25.486C34.4354 23.8092 34.3672 22.0748 33.8952 20.43C34.4963 20.2742 35.0289 19.9236 35.4097 19.4331C35.7905 18.9426 35.9981 18.3397 36 17.7188ZM2.25 17.7188V3.09375C2.25019 2.94463 2.30952 2.80166 2.41497 2.69622C2.52041 2.59077 2.66338 2.53144 2.8125 2.53125H33.1875C33.3366 2.5314 33.4796 2.59071 33.5851 2.69617C33.6905 2.80162 33.7499 2.94461 33.75 3.09375V17.7188C33.747 17.8051 33.7253 17.8899 33.6862 17.967C33.6472 18.0441 33.5918 18.1118 33.5239 18.1653C33.4561 18.2189 33.3773 18.257 33.2932 18.277C33.2091 18.297 33.1217 18.2985 33.037 18.2812C32.3461 17.0153 31.4112 15.8988 30.2864 14.9963C30.7043 14.4979 30.9346 13.8691 30.9375 13.2188V7.59375C30.9366 6.8481 30.64 6.13324 30.1128 5.60598C29.5855 5.07872 28.8707 4.78213 28.125 4.78125H25.875C25.1293 4.78213 24.4145 5.07872 23.8872 5.60598C23.36 6.13324 23.0634 6.8481 23.0625 7.59375V12.6736C21.6009 12.75 20.1707 13.1271 18.8614 13.7812H16.875C16.7259 13.7811 16.5829 13.7217 16.4775 13.6163C16.372 13.5108 16.3127 13.3679 16.3125 13.2188V11.5312H19.6875C19.983 11.527 20.265 11.4065 20.4725 11.196C20.68 10.9855 20.7963 10.7018 20.7963 10.4062C20.7963 10.1107 20.68 9.82695 20.4725 9.61644C20.265 9.40593 19.983 9.28553 19.6875 9.28125H16.3125V7.59375C16.3127 7.44462 16.372 7.30166 16.4775 7.19622C16.5829 7.09077 16.7259 7.03144 16.875 7.03125H19.6875C19.9859 7.03125 20.272 6.91272 20.483 6.70175C20.694 6.49077 20.8125 6.20462 20.8125 5.90625C20.8125 5.60788 20.694 5.32173 20.483 5.11075C20.272 4.89978 19.9859 4.78125 19.6875 4.78125H16.875C16.1293 4.78213 15.4145 5.07872 14.8872 5.60598C14.36 6.13324 14.0634 6.8481 14.0625 7.59375V13.2188C14.0645 13.8077 14.2517 14.381 14.5976 14.8576C14.9435 15.3343 15.4305 15.6901 15.9897 15.8747C15.2929 16.5941 14.6955 17.4034 14.2133 18.2812H2.8125C2.66338 18.2811 2.52041 18.2217 2.41497 18.1163C2.30952 18.0108 2.25019 17.8679 2.25 17.7188ZM25.3125 12.79V7.59375C25.3126 7.44461 25.372 7.30162 25.4774 7.19617C25.5829 7.09071 25.7259 7.0314 25.875 7.03125H28.125C28.2741 7.0314 28.4171 7.09071 28.5226 7.19617C28.628 7.30162 28.6874 7.44461 28.6875 7.59375V13.2188C28.5695 14.0282 28.1048 13.624 27.6191 13.4285C26.8746 13.1359 26.1015 12.9219 25.3125 12.79ZM29.6615 29.2314C24.4831 34.6344 15.1414 30.8352 15.1876 23.3436C15.1027 17.0807 22.0966 12.8657 27.5955 15.899C32.4901 18.4025 33.5894 25.3643 29.6615 29.2314Z" fill="#84C225"/>
</g>
<defs>
<clipPath id="clip0_77_492">
<rect width="36" height="36" fill="white"/>
</clipPath>
</defs>
</svg>
